<svg width="51" height="73" viewBox="0 0 51 73" fill="none" xmlns="http://www.w3.org/2000/svg">
<path d="M37.0077 27.2003H23.1122V-9.15527e-05H37.0077C44.5067 -9.15527e-05 50.6064 6.09962 50.6064 13.5986C50.6064 21.0975 44.5067 27.2003 37.0077 27.2003V27.2003ZM27.5674 22.7451H37.0077C42.0504 22.7451 46.1512 18.6413 46.1512 13.6016C46.1512 8.56192 42.0474 4.45809 37.0077 4.45809H27.5674V22.7451V22.7451ZM27.5674 27.2003H13.6749C6.17599 27.2003 0.0762706 21.1006 0.0762706 13.6016C0.0762706 6.10265 6.17599 -9.15527e-05 13.6749 -9.15527e-05H27.5704V27.2003H27.5674ZM13.6749 4.45506C8.63223 4.45506 4.53143 8.55889 4.53143 13.5986C4.53143 18.6383 8.63223 22.7451 13.6749 22.7451H23.1153V4.45506H13.6749ZM27.5674 49.9425H13.6749C6.17599 49.9425 0.0762706 43.8428 0.0762706 36.3438C0.0762706 28.8448 6.17599 22.7451 13.6749 22.7451H27.5704V49.9425H27.5674ZM13.6749 27.2003C8.63223 27.2003 4.53143 31.3041 4.53143 36.3438C4.53143 41.3835 8.63526 45.4873 13.6749 45.4873H23.1153V27.2003H13.6749ZM13.7476 72.6877C6.2093 72.6877 0.0732422 66.588 0.0732422 59.089C0.0732422 51.5901 6.17296 45.4903 13.6719 45.4903H27.5674V58.9406C27.5674 66.5213 21.3677 72.6877 13.7476 72.6877V72.6877ZM13.6749 49.9425C11.2509 49.9457 8.92709 50.91 7.21304 52.6241C5.49899 54.3381 4.53463 56.662 4.53143 59.086C4.53143 64.1287 8.66554 68.2295 13.7507 68.2295C18.9145 68.2295 23.1183 64.0621 23.1183 58.9376V49.9425H13.6749V49.9425ZM37.0077 49.9425H36.7109C29.212 49.9425 23.1122 43.8428 23.1122 36.3438C23.1122 28.8448 29.212 22.7451 36.7109 22.7451H37.0077C44.5067 22.7451 50.6064 28.8448 50.6064 36.3438C50.6064 43.8428 44.5067 49.9425 37.0077 49.9425V49.9425ZM36.7139 27.2003C31.6712 27.2003 27.5704 31.3041 27.5704 36.3438C27.5704 41.3835 31.6743 45.4873 36.7139 45.4873H37.0107C42.0535 45.4873 46.1543 41.3835 46.1543 36.3438C46.1543 31.3041 42.0504 27.2003 37.0107 27.2003H36.7139V27.2003Z" fill="#3C82F6"/>
</svg>
