<svg width="73" height="71" viewBox="0 0 73 71" fill="none" xmlns="http://www.w3.org/2000/svg">
<path d="M71.4777 28.0535L71.3756 27.7924L61.4819 1.97279C61.2806 1.46659 60.9242 1.03718 60.4637 0.746186C60.0029 0.460306 59.4656 0.322673 58.9241 0.351865C58.3827 0.381057 57.8632 0.57567 57.4359 0.909431C57.0132 1.25272 56.7065 1.71793 56.5576 2.24174L49.8779 22.6791H22.8287L16.1483 2.24174C16.0034 1.71502 15.6961 1.24742 15.27 0.905493C14.8426 0.571825 14.3232 0.377321 13.7817 0.348237C13.2403 0.319153 12.703 0.45689 12.2423 0.742854C11.7829 1.03494 11.4267 1.46387 11.2241 1.96916L1.31217 27.7773L1.21374 28.0383C-0.210495 31.7595 -0.386318 35.8428 0.712777 39.6726C1.81187 43.5025 4.1263 46.8711 7.30709 49.2707L7.34132 49.2971L7.43218 49.3616L22.5028 60.6476L29.9593 66.2909L34.5008 69.7196C35.0321 70.123 35.6808 70.3413 36.3478 70.3413C37.0149 70.3413 37.6636 70.123 38.1949 69.7196L42.7363 66.2909L50.1926 60.6476L65.354 49.2934L65.3919 49.2631C68.5655 46.8631 70.8746 43.4979 71.972 39.6733C73.0694 35.8486 72.896 31.7711 71.4777 28.0535V28.0535Z" fill="#3C82F6"/>
</svg>
