<svg width="74" height="66" viewBox="0 0 74 66" fill="none" xmlns="http://www.w3.org/2000/svg">
<path d="M43.6554 32.6579C43.6554 34.4534 42.9423 36.1755 41.673 37.4454C40.4036 38.7153 38.6819 39.4292 36.8864 39.43C35.0903 39.43 33.3678 38.7165 32.0978 37.4465C30.8278 36.1765 30.1143 34.454 30.1143 32.6579C30.1143 30.8624 30.8274 29.1403 32.0967 27.8704C33.3661 26.6005 35.0878 25.8866 36.8833 25.8858C38.6794 25.8858 40.4019 26.5993 41.6719 27.8693C42.9419 29.1393 43.6554 30.8618 43.6554 32.6579V32.6579ZM51.6753 0.281555C47.5987 0.281555 42.2653 3.18907 36.8712 8.22269C31.4802 3.21632 26.1437 0.342128 22.0702 0.342128C20.8284 0.342128 19.6987 0.623793 18.7205 1.18409C14.5561 3.58582 13.6232 11.0696 15.7736 20.4615C6.55436 23.3084 0.557617 27.8605 0.557617 32.6579C0.557617 37.4735 6.58465 42.0377 15.8311 44.8634C13.699 54.2916 14.65 61.7875 18.8235 64.1862C19.7926 64.7526 20.9132 65.0191 22.161 65.0191C26.2346 65.0191 31.5711 62.1116 36.9651 57.0719C42.3561 62.0813 47.6926 64.9555 51.7662 64.9555C53.0079 64.9555 54.1376 64.6829 55.1158 64.1226C59.2772 61.7239 60.2131 54.2401 58.0627 44.8452C67.2486 42.0225 73.2454 37.4613 73.2454 32.6579C73.2454 27.8423 67.2184 23.2781 57.9719 20.4464C60.104 11.0272 59.153 3.52525 54.9796 1.12352C54.0164 0.566249 52.8958 0.284584 51.6723 0.281555H51.6753ZM51.6601 3.58279V3.60096C52.3416 3.60096 52.8898 3.73422 53.3501 3.9856C55.3672 5.14255 56.2425 9.54319 55.5611 15.2037C55.3975 16.5969 55.131 18.0658 54.8039 19.565C51.8964 18.8503 48.7284 18.3021 45.3939 17.9477C43.3949 15.2068 41.3203 12.7172 39.2305 10.5366C44.0522 6.05417 48.58 3.59491 51.6632 3.58582L51.6601 3.58279ZM22.0702 3.64336C25.1352 3.64336 29.6842 6.09052 34.518 10.5487C32.4403 12.7293 30.3687 15.2037 28.4001 17.9447C25.0473 18.299 21.8763 18.8472 18.9719 19.5741C18.6326 18.0901 18.3813 16.6545 18.2026 15.2734C17.506 9.61588 18.3661 5.21827 20.365 4.04618C20.9405 3.7736 21.5765 3.66154 22.0702 3.64639V3.64336ZM36.8561 12.8808C38.2341 14.2982 39.6122 15.8852 40.975 17.6176C39.6424 17.557 38.2795 17.5146 36.9015 17.5146C35.5083 17.5146 34.1303 17.5449 32.7825 17.6176C34.1151 15.8852 35.4932 14.2982 36.8561 12.8777V12.8808ZM36.9015 20.834C39.1427 20.834 41.3748 20.937 43.5706 21.1157C44.8002 22.8784 45.9996 24.7592 47.1535 26.749C48.2802 28.6873 49.3039 30.656 50.2367 32.6428C49.3039 34.6265 48.2802 36.6103 47.1687 38.5486C46.0178 40.5476 44.8275 42.4495 43.5948 44.2122C41.39 44.403 39.1548 44.509 36.9015 44.509C34.6603 44.509 32.4282 44.403 30.2324 44.2274C29.0028 42.4647 27.8034 40.5809 26.6495 38.5941C25.5228 36.6557 24.4992 34.6871 23.5663 32.7003C24.484 30.7105 25.5228 28.7237 26.6344 26.7823C27.7852 24.7834 28.9755 22.8875 30.2082 21.1248C32.413 20.9309 34.6482 20.828 36.9015 20.828V20.834ZM25.8923 21.6033C25.1655 22.7451 24.4386 23.9142 23.7602 25.1165C23.0787 26.2977 22.4427 27.485 21.837 28.6722C21.0344 26.6854 20.3529 24.7046 19.7896 22.7754C21.7279 22.3211 23.7723 21.9183 25.8923 21.6063V21.6033ZM47.8804 21.6033C49.9853 21.9153 52.0145 22.2999 53.9559 22.7754C53.4107 24.6895 52.7293 26.6581 51.957 28.6298C51.3512 27.4486 50.7152 26.2583 50.0186 25.0741C49.3372 23.8869 48.6103 22.73 47.8834 21.6033H47.8804ZM57.1572 23.6476C58.623 24.1019 60.0162 24.6077 61.3216 25.1559C66.5672 27.3971 69.9593 30.3289 69.9593 32.6549C69.9442 34.9809 66.5521 37.9247 61.3064 40.1508C60.0344 40.696 58.6412 41.1866 57.2026 41.6439C56.3546 38.7425 55.2461 35.7199 53.8711 32.6185C55.234 29.5384 56.3243 26.5309 57.1572 23.6416V23.6476ZM16.5883 23.6598C17.4303 26.5673 18.5418 29.5868 19.9198 32.6852C18.5569 35.7653 17.4606 38.7728 16.6307 41.6621C15.1648 41.2078 13.7716 40.699 12.4814 40.1478C7.23581 37.9156 3.84371 34.9809 3.84371 32.6549C3.84371 30.3289 7.23581 27.379 12.4814 25.1559C13.7535 24.6108 15.1467 24.1201 16.5883 23.6598V23.6598ZM51.957 36.6224C52.7596 38.6122 53.441 40.596 54.0043 42.5222C52.066 42.9977 50.0186 43.4005 47.8986 43.7034C48.6254 42.5677 49.3523 41.3956 50.0338 40.1962C50.7152 39.0151 51.3512 37.8096 51.96 36.6224H51.957ZM21.837 36.683C22.4427 37.8702 23.0787 39.0544 23.7753 40.2417C24.4719 41.4228 25.1836 42.5798 25.9105 43.7034C23.8056 43.3945 21.7764 43.0068 19.835 42.5344C20.3802 40.6263 21.0647 38.6516 21.8339 36.68L21.837 36.683ZM54.8312 45.7296C55.1704 47.2227 55.4369 48.6613 55.6004 50.0394C56.297 55.6969 55.4369 60.0945 53.438 61.2696C52.9928 61.5422 52.4143 61.6573 51.7328 61.6573C48.6678 61.6573 44.1188 59.2132 39.2851 54.752C41.3627 52.5713 43.4343 50.0999 45.4029 47.362C48.7557 47.0046 51.9267 46.4534 54.8312 45.7266V45.7296ZM19.0021 45.7599C21.9097 46.4686 25.0776 47.0168 28.4122 47.3711C30.4111 50.1121 32.4857 52.6016 34.5755 54.7792C29.7448 59.2707 25.2109 61.73 22.1277 61.73C21.4614 61.7148 20.8981 61.5786 20.4529 61.3302C18.4358 60.1793 17.5605 55.7756 18.2419 50.1151C18.4055 48.7219 18.672 47.256 18.9991 45.7599H19.0021ZM32.8128 47.6982C34.1454 47.7588 35.5083 47.8012 36.8864 47.8012C38.2795 47.8012 39.6576 47.7709 41.0053 47.6982C39.6727 49.4306 38.2947 51.0146 36.9318 52.4381C35.5538 51.0146 34.1757 49.4306 32.8128 47.6982Z" fill="#3C82F6"/>
</svg>
