<svg width="73" height="66" viewBox="0 0 73 66" fill="none" xmlns="http://www.w3.org/2000/svg">
<path d="M71.7584 28.7074L57.4328 3.91969C56.1929 1.76752 53.1424 0 50.648 0H22.0263C19.5458 0 16.4814 1.76752 15.2415 3.91969L0.930176 28.7074C-0.310059 30.8596 -0.310059 34.3801 0.930176 36.5326L15.2412 61.3342C16.4811 63.4867 19.5316 65.2542 22.026 65.2542H50.6619C53.1424 65.2542 56.1923 63.4867 57.4467 61.3345L71.7577 36.5329C72.998 34.3804 72.9986 30.8596 71.7584 28.7074ZM33.2438 13.7122C33.2438 12.0874 34.5695 10.7617 36.1943 10.7617C37.8192 10.7617 39.1449 12.0874 39.1449 13.7122V31.3442C39.1449 32.9694 37.8192 34.2947 36.1943 34.2947C34.5695 34.2947 33.2438 32.9694 33.2438 31.3442V13.7122ZM36.1943 51.3566C25.1619 51.3566 16.1819 42.3767 16.1819 31.3442C16.1961 25.0155 19.1893 19.0718 24.2639 15.2802C24.5406 15.0735 24.8554 14.9234 25.1902 14.8387C25.5251 14.7541 25.8734 14.7364 26.2151 14.7867C26.5568 14.837 26.8852 14.9543 27.1814 15.132C27.4777 15.3096 27.7359 15.544 27.9413 15.8217C28.148 16.0984 28.2981 16.4133 28.3828 16.7481C28.4675 17.083 28.4852 17.4314 28.4349 17.7731C28.3846 18.1149 28.2672 18.4433 28.0896 18.7396C27.9119 19.0358 27.6775 19.294 27.3997 19.4994C20.8572 24.3598 19.4889 33.6105 24.3493 40.153C29.21 46.6958 38.4607 48.0639 45.0032 43.2035C48.7521 40.4241 50.9615 36.0195 50.9615 31.3442C50.9553 29.0309 50.4081 26.7511 49.3637 24.687C48.3192 22.623 46.8065 20.8318 44.9463 19.4567C43.7772 18.6014 43.5349 16.9478 44.3902 15.779C45.2455 14.6099 46.8988 14.3676 48.0679 15.2232C53.1848 19.0003 56.1926 24.987 56.2068 31.3442C56.2068 42.3909 47.2268 51.3566 36.1943 51.3566Z" fill="#3C82F6"/>
</svg>
