<svg width="74" height="45" viewBox="0 0 74 45" fill="none" xmlns="http://www.w3.org/2000/svg">
<path d="M36.7179 0.570435C27.0262 0.570435 20.9689 5.41629 18.546 15.108C22.1804 10.2621 26.4205 8.44494 31.2663 9.65641C34.0315 10.3469 36.0062 12.3519 38.1959 14.5749C41.7606 18.1912 45.8826 22.3768 54.8899 22.3768C64.5816 22.3768 70.6389 17.5309 73.0618 7.83921C69.4274 12.6851 65.1873 14.5023 60.3414 13.2908C57.5763 12.6003 55.6016 10.5953 53.4119 8.37225C49.8502 4.75604 45.7282 0.570435 36.7179 0.570435ZM18.546 22.3768C8.85426 22.3768 2.79695 27.2226 0.374023 36.9143C4.00841 32.0685 8.24853 30.2513 13.0944 31.4627C15.8595 32.1533 17.8342 34.1582 20.024 36.3813C23.5887 39.9975 27.7107 44.1831 36.7179 44.1831C46.4096 44.1831 52.4669 39.3372 54.8899 29.6455C51.2555 34.4914 47.0153 36.3086 42.1695 35.0971C39.4043 34.4066 37.4296 32.4016 35.2399 30.1786C31.6782 26.5624 27.5562 22.3768 18.546 22.3768Z" fill="#3C82F6"/>
</svg>
