<svg width="73" height="72" viewBox="0 0 73 72" fill="none" xmlns="http://www.w3.org/2000/svg">
<path d="M36.3478 0.898804C16.2678 0.898804 0.00390625 17.1718 0.00390625 37.2427C0.00390625 53.3037 10.4164 66.9235 24.854 71.7239C26.6712 72.0662 27.3375 70.9426 27.3375 69.9764C27.3375 69.1132 27.3073 66.8266 27.2921 63.798C17.1825 65.9907 15.0503 58.9218 15.0503 58.9218C13.3966 54.7271 11.007 53.6065 11.007 53.6065C7.71487 51.3532 11.2614 51.3986 11.2614 51.3986C14.911 51.653 16.8281 55.1421 16.8281 55.1421C20.0688 60.6996 25.3356 59.0944 27.4133 58.1647C27.7403 55.8144 28.6762 54.2123 29.715 53.3037C21.6437 52.3951 13.1604 49.2695 13.1604 35.3437C13.1604 31.3762 14.5687 28.1355 16.9008 25.5914C16.4919 24.6738 15.2653 20.9788 17.2188 15.9724C17.2188 15.9724 20.2626 14.9972 27.2134 19.6977C30.1209 18.889 33.2101 18.4892 36.2993 18.4711C39.3886 18.4892 42.4778 18.889 45.3853 19.6977C52.2906 14.9972 55.3344 15.9724 55.3344 15.9724C57.2879 20.9788 56.0613 24.6738 55.6979 25.5914C58.0148 28.1355 59.4231 31.3762 59.4231 35.3437C59.4231 49.3058 50.9277 52.3799 42.8412 53.2734C44.1133 54.3637 45.2944 56.5928 45.2944 59.997C45.2944 64.861 45.249 68.768 45.249 69.9492C45.249 70.9032 45.885 72.0389 47.7477 71.6755C62.2882 66.9084 72.6917 53.2794 72.6917 37.2427C72.6917 17.1718 56.4187 0.898804 36.3478 0.898804" fill="black"/>
</svg>
