<svg width="73" height="73" viewBox="0 0 73 73" fill="none" xmlns="http://www.w3.org/2000/svg">
<path d="M36.3439 -0.00012207C26.4705 -0.00012207 25.2378 0.0453078 21.3611 0.217941C17.4905 0.399661 14.8556 1.00842 12.5386 1.90793C10.149 2.8347 8.11983 4.07948 6.09972 6.09959C4.0796 8.11971 2.83179 10.1459 1.90805 12.5385C1.00854 14.8554 0.396754 17.4904 0.218063 21.361C0.0363439 25.2377 0 26.4703 0 36.3438C0 46.2172 0.0454298 47.4499 0.218063 51.3265C0.399783 55.1941 1.00854 57.8321 1.90805 60.149C2.83482 62.5356 4.0796 64.5678 6.09972 66.5879C8.11983 68.605 10.146 69.8559 12.5386 70.7796C14.8586 71.6761 17.4935 72.2909 21.3611 72.4696C25.2378 72.6513 26.4705 72.6877 36.3439 72.6877C46.2173 72.6877 47.45 72.6422 51.3267 72.4696C55.1943 72.2879 57.8322 71.6761 60.1491 70.7796C62.5357 69.8528 64.5679 68.605 66.5881 66.5879C68.6051 64.5678 69.856 62.5447 70.7797 60.149C71.6762 57.8321 72.291 55.1941 72.4697 51.3265C72.6514 47.4499 72.6878 46.2172 72.6878 36.3438C72.6878 26.4703 72.6423 25.2377 72.4697 21.361C72.288 17.4934 71.6762 14.8524 70.7797 12.5385C69.853 10.1489 68.6051 8.11971 66.5881 6.09959C64.5679 4.07948 62.5448 2.83167 60.1491 1.90793C57.8322 1.00842 55.1943 0.396632 51.3267 0.217941C47.45 0.0362218 46.2173 -0.00012207 36.3439 -0.00012207ZM36.3439 6.54178C46.0447 6.54178 47.2016 6.59024 51.0329 6.75681C54.5764 6.92339 56.4996 7.51095 57.7777 8.0137C59.4798 8.67092 60.6852 9.45837 61.9633 10.7274C63.2323 11.9994 64.0198 13.2079 64.677 14.91C65.1737 16.1881 65.7673 18.1112 65.9278 21.6548C66.1004 25.4891 66.1398 26.6399 66.1398 36.3438C66.1398 46.0476 66.0944 47.2015 65.9157 51.0328C65.7309 54.5763 65.1404 56.4995 64.6406 57.7776C63.9622 59.4797 63.1899 60.6851 61.9179 61.9632C60.6489 63.2322 59.4223 64.0196 57.7383 64.6769C56.4663 65.1736 54.5128 65.7672 50.9693 65.9277C47.1108 66.1003 45.975 66.1397 36.253 66.1397C26.528 66.1397 25.3923 66.0943 21.5368 65.9156C17.9902 65.7308 16.0367 65.1402 14.7647 64.6405C13.0414 63.9621 11.8572 63.1898 10.5882 61.9177C9.31312 60.6487 8.49841 59.4221 7.86239 57.7382C7.36267 56.4662 6.77511 54.5127 6.59036 50.9692C6.45407 47.153 6.40561 45.9749 6.40561 36.2983C6.40561 26.6187 6.45407 25.4376 6.59036 21.576C6.77511 18.0325 7.36267 16.082 7.86239 14.81C8.49841 13.0837 9.31312 11.9025 10.5882 10.6274C11.8572 9.35843 13.0414 8.54069 14.7647 7.9077C16.0367 7.40494 17.9478 6.81436 21.4914 6.63264C25.3529 6.49635 26.4886 6.45092 36.2076 6.45092L36.3439 6.54178V6.54178ZM36.3439 17.6812C26.0313 17.6812 17.6813 26.0403 17.6813 36.3438C17.6813 46.6563 26.0404 55.0064 36.3439 55.0064C46.6565 55.0064 55.0065 46.6473 55.0065 36.3438C55.0065 26.0312 46.6474 17.6812 36.3439 17.6812ZM36.3439 48.4584C29.6506 48.4584 24.2293 43.0371 24.2293 36.3438C24.2293 29.6504 29.6506 24.2291 36.3439 24.2291C43.0372 24.2291 48.4585 29.6504 48.4585 36.3438C48.4585 43.0371 43.0372 48.4584 36.3439 48.4584ZM60.1067 16.9452C60.1067 19.353 58.1502 21.3065 55.7455 21.3065C53.3377 21.3065 51.3842 19.35 51.3842 16.9452C51.3842 14.5405 53.3407 12.587 55.7455 12.587C58.1472 12.5839 60.1067 14.5405 60.1067 16.9452Z" fill="black"/>
</svg>
