<svg width="103" height="73" viewBox="0 0 103 73" fill="none" xmlns="http://www.w3.org/2000/svg">
<path d="M100.362 11.675L100.362 11.6754C101.425 15.6616 101.962 21.8514 102.231 27.0804C102.366 29.6874 102.433 32.0429 102.466 33.7466C102.483 34.5984 102.492 35.287 102.496 35.7623C102.498 36 102.499 36.1844 102.499 36.3091L102.5 36.4508L102.5 36.4867L102.5 36.4956V36.4978V36.4983C102.5 36.4984 102.5 36.4984 103 36.4984C102.5 36.4984 102.5 36.4985 102.5 36.4986V36.4991V36.5013L102.5 36.5102L102.5 36.546L102.499 36.6877C102.499 36.8125 102.498 36.9969 102.496 37.2346C102.492 37.7099 102.483 38.3985 102.466 39.2503C102.433 40.954 102.366 43.3095 102.232 45.9166C101.963 51.1455 101.427 57.3354 100.367 61.3217L100.367 61.322C99.8076 63.4293 98.7045 65.3527 97.1679 66.8995C95.6315 68.446 93.7157 69.5616 91.6124 70.1345C89.6561 70.6622 86.182 71.0665 82.029 71.3715C77.8899 71.6755 73.1187 71.8784 68.5938 72.0138C64.0697 72.1491 59.7958 72.2168 56.6528 72.2506C55.0814 72.2676 53.7928 72.276 52.8973 72.2803C52.4495 72.2824 52.1 72.2834 51.8626 72.2839L51.5921 72.2844L51.5231 72.2845H51.5057L51.5014 72.2845H51.5003C51.5001 72.2845 51.5 72.2845 51.5 72.7845C51.5 72.2845 51.4999 72.2845 51.4997 72.2845H51.4986L51.4943 72.2845H51.4769L51.4079 72.2844L51.1374 72.2839C50.9 72.2834 50.5505 72.2824 50.1027 72.2803C49.2072 72.276 47.9187 72.2676 46.3473 72.2506C43.2043 72.2168 38.9306 72.1491 34.4068 72.0138C29.8821 71.8784 25.1113 71.6755 20.9728 71.3715C16.8203 71.0665 13.347 70.6622 11.3918 70.1345C9.28876 69.5612 7.37316 68.4454 5.83685 66.899C4.30031 65.3523 3.19709 63.4291 2.63768 61.3219L2.63756 61.3214C1.57542 57.3352 1.03803 51.1455 0.76864 45.9165C0.634329 43.3095 0.567154 40.954 0.533566 39.2503C0.516774 38.3985 0.508382 37.7099 0.504188 37.2345C0.502092 36.9969 0.501045 36.8125 0.500522 36.6877L0.500065 36.546L0.500008 36.5102L0.500001 36.5013L0.5 36.4991L0.5 36.4986C0.5 36.4985 0.5 36.4984 0 36.4984C0.5 36.4984 0.5 36.4984 0.5 36.4983L0.5 36.4978L0.500001 36.4956L0.500008 36.4867L0.500065 36.4508L0.500522 36.3091C0.501045 36.1844 0.502092 36 0.504188 35.7623C0.508382 35.287 0.516774 34.5984 0.533566 33.7466C0.567154 32.0429 0.634329 29.6874 0.76864 27.0804C1.03803 21.8514 1.57542 15.6616 2.63756 11.6754L2.63767 11.675C3.19711 9.56849 4.29985 7.64576 5.83559 6.09916C7.37115 4.55274 9.28578 3.43656 11.388 2.86223C13.3444 2.33461 16.8183 1.9304 20.971 1.62539C25.1101 1.32136 29.8813 1.11845 34.4062 0.98309C38.9303 0.847759 43.2041 0.780079 46.3472 0.746237C47.9186 0.729318 49.2072 0.720859 50.1027 0.71663C50.5504 0.714515 50.9 0.713458 51.1374 0.71293L51.4079 0.712468L51.4769 0.712411L51.4943 0.712403L51.4986 0.712402L51.4997 0.712402C51.4999 0.712402 51.5 0.712402 51.5 0.212402C51.5 0.712402 51.5001 0.712402 51.5003 0.712402L51.5014 0.712402L51.5057 0.712403L51.5231 0.712411L51.5921 0.712468L51.8626 0.71293C52.1 0.713458 52.4495 0.714515 52.8973 0.71663C53.7928 0.720859 55.0813 0.729318 56.6527 0.746237C59.7957 0.780079 64.0694 0.847759 68.5932 0.98309C73.1179 1.11845 77.8887 1.32136 82.0272 1.62539C86.1796 1.93043 89.6529 2.33467 91.6081 2.86234C93.7112 3.43567 95.6268 4.55141 97.1631 6.09788C98.6997 7.64456 99.8029 9.56779 100.362 11.675ZM40.464 51.8111V52.6707L41.2112 52.2457L68.1328 36.9331L68.8969 36.4984L68.1328 36.0638L41.2112 20.7512L40.464 20.3262V21.1858V51.8111Z" fill="black" stroke="black"/>
</svg>
