<?xml version="1.0" encoding="UTF-8"?>
<svg id="_Слой_1" data-name="Слой 1" xmlns="http://www.w3.org/2000/svg" viewBox="0 0 1921 345">
  <defs>
    <style>
      .cls-1 {
        fill: #fff;
      }

      .cls-1, .cls-2 {
        fill-rule: evenodd;
      }
    </style>
  </defs>
  <path class="cls-1" d="M1697.78,339.36L1755.15,5.16h78.27l-57.84,334.2h-77.8Zm-89.13-265.69c-5.89-7.73-14.9-11.74-29.04-12.05-13.16-.31-24.79,2.75-34.89,9.18-10.1,6.43-16.07,15.07-17.9,25.94-2.91,15.72,8.45,27.85,34.09,37.64,25.63,9.79,44.26,18.21,55.89,25.25,36.57,21.88,53.71,51.87,51.42,88.6-1.23,19.28-7.42,36.19-18.59,50.73-11.17,14.54-26.67,25.79-46.48,33.74-19.82,7.95-41.2,11.78-66.68,11.48-18.06-.31-34.81-2.76-50.27-8.49-15.46-5.35-28.69-13.16-39.71-23.41-22.34-20.66-33.05-47.82-32.14-81.49l79.42,.41c-1.61,16.96,1.68,29.93,9.18,38.73,7.49,8.8,20.72,13.2,37.87,13.2,13.16,0,24.14-3.02,32.94-8.54,8.8-6.44,14.19-14.94,16.18-25.66,3.36-17.29-5.97-30.68-28-40.17l-37.64-15.61c-52.79-23.72-77.89-56.01-74.69-96.86,1.15-18.67,6.9-35.31,18.69-49.92,12.39-14.61,28.08-25.97,48.89-34.09,20.81-8.11,43.53-12.01,68.17-11.71,33.05,.61,59.64,10.25,79.76,28.92,20.12,18.67,30.03,43.69,29.72,75.06h-78.04c.46-12.85-2.26-23.14-8.15-30.87Zm-230.05,90.5c-12.24,15.82-29.38,28.32-51.42,37.49l44.99,133.79v3.91h-83.78l-36.73-118.21h-43.16l-21.11,118.21h-78.5L1166.73,5.16l117.98,.23c37.8,0,66.91,8.83,87.81,26.48,19.96,17.66,29.1,41.77,26.96,72.34-1.69,24.15-8.65,44.14-20.89,59.96Zm-58.07-69.89c-3.06-17.03-13.93-26-32.59-26.92l-53.25-.23-16.07,92.04,45.91,.46c13.09,0,23.45-3.07,32.71-9.2,9.26-6.13,16.76-14.53,20.57-25.2,3.77-10.66,4.41-20.98,2.73-30.95Zm-362.38-26.92l-36.79,70.47h207.76l-10.33,59.68h-228.91l-42.47,79.88,257.58-.39-10,62-355.86,.55L900.37,6.11l251.43-.95-10.67,62.2h-182.98Zm-319,272L583.14,5.16h85.51l25.58,242.39L796.6,5.16h89.98l-161.59,334.2h-85.85Zm-228.33-201.53l178.89,.67,10.49,58.99-199.48,.02-14,79.88,226.59,.06,10.49,62.1-326.37-.19L355.26,5.16l212.16,.95,10.49,61.61-154.7-.35-12.39,70.47Zm-141.11,26.34c-12.24,15.82-29.38,28.32-51.42,37.49l44.99,133.79v3.91h-83.78l-36.73-118.21h-43.61l-20.66,118.21H0L57.84,5.16l117.98,.23c37.79,0,66.91,8.83,87.34,26.48,20.43,17.66,29.57,41.77,27.43,72.34-1.69,24.15-8.65,44.14-20.89,59.96Zm-58.07-69.89c-3.06-17.03-13.93-26-32.26-26.92l-53.58-.23-16.07,92.04,45.91,.46c12.55,0,24.11-3.07,32.71-9.2,9.26-6.13,15.87-14.53,19.86-25.2,3.98-10.66,5.12-20.98,3.44-30.95Z"/>
  <polygon class="cls-1" points="639.14 339.6 583.14 5.4 668.65 5.4 694.23 247.79 796.6 5.4 886.58 5.4 724.99 339.6 639.14 339.6"/>
  <polygon class="cls-1" points="410.81 137.98 589.71 138.64 600.19 197.63 400.71 197.65 386.71 277.53 613.3 277.59 623.79 339.7 297.42 339.51 355.26 5.3 567.42 6.25 577.91 67.86 423.21 67.51 410.81 137.98"/>
  <polygon class="cls-2" points="1905.42 339.36 1827.63 339.36 1839.58 267.17 1917.86 267.17 1905.42 339.36"/>
</svg>