<svg width="59" height="59" viewBox="0 0 59 59" fill="#3c82f6ff" xmlns="http://www.w3.org/2000/svg">
    <path d="M27.9534 47.505L12.3217 57.2748C11.5696 57.7449 10.6231 57.0758 10.8156 56.2099L14.7268 38.6094C14.9493 37.6081 14.6448 36.5626 13.9195 35.8373L2.03275 23.9505C1.44433 23.3621 1.7901 22.3544 2.61582 22.2511L18.2356 20.2987C19.2309 20.1743 20.0982 19.5606 20.5467 18.6635L28.649 2.45901C29.0175 1.72196 30.0693 1.72196 30.4378 2.459L38.5401 18.6635C38.9887 19.5606 39.8559 20.1743 40.8512 20.2987L56.471 22.2511C57.2967 22.3544 57.6425 23.3621 57.0541 23.9505L45.1673 35.8373C44.442 36.5626 44.1375 37.6081 44.36 38.6094L48.2713 56.2099C48.4637 57.0757 47.5172 57.7449 46.7651 57.2748L31.1334 47.505C30.1606 46.897 28.9262 46.897 27.9534 47.505Z"/>
</svg>