<svg width="79" height="88" viewBox="0 0 79 88" fill="none" xmlns="http://www.w3.org/2000/svg">
<path d="M39.5 0C30.401 0 23 7.51148 23 16.7445C23 29.4853 37.2822 41.8787 37.8911 42.4046C38.8119 43.1985 40.1881 43.1985 41.1089 42.4046C41.7178 41.8837 56 29.4903 56 16.7445C56 7.51148 48.599 0 39.5 0ZM39.5 23.1546C35.8614 23.1546 32.901 20.1877 32.901 16.5411C32.901 12.8945 35.8614 9.92765 39.5 9.92765C43.1386 9.92765 46.099 12.8945 46.099 16.5411C46.099 20.1877 43.1386 23.1546 39.5 23.1546Z" fill="#3c82f6"/>
</svg>
